<svg width="463" height="299" xmlns="http://www.w3.org/2000/svg" xmlns:xlink="http://www.w3.org/1999/xlink" overflow="hidden"><defs><clipPath id="clip0"><rect x="443" y="136" width="463" height="299"/></clipPath><clipPath id="clip1"><rect x="443" y="136" width="462" height="298"/></clipPath><clipPath id="clip2"><rect x="443" y="136" width="462" height="298"/></clipPath><clipPath id="clip3"><rect x="443" y="136" width="462" height="298"/></clipPath><clipPath id="clip4"><rect x="443" y="136" width="462" height="298"/></clipPath><clipPath id="clip5"><rect x="492" y="150" width="382" height="252"/></clipPath><clipPath id="clip6"><rect x="443" y="136" width="462" height="298"/></clipPath><clipPath id="clip7"><rect x="443" y="136" width="462" height="298"/></clipPath><clipPath id="clip8"><rect x="443" y="136" width="462" height="298"/></clipPath><clipPath id="clip9"><rect x="443" y="136" width="462" height="298"/></clipPath><clipPath id="clip10"><rect x="443" y="136" width="462" height="298"/></clipPath><clipPath id="clip11"><rect x="443" y="136" width="462" height="298"/></clipPath><clipPath id="clip12"><rect x="443" y="136" width="462" height="298"/></clipPath><clipPath id="clip13"><rect x="443" y="136" width="462" height="298"/></clipPath><clipPath id="clip14"><rect x="443" y="136" width="462" height="298"/></clipPath><clipPath id="clip15"><rect x="443" y="136" width="462" height="298"/></clipPath><clipPath id="clip16"><rect x="443" y="136" width="462" height="298"/></clipPath><clipPath id="clip17"><rect x="443" y="136" width="462" height="298"/></clipPath><clipPath id="clip18"><rect x="443" y="136" width="462" height="298"/></clipPath><clipPath id="clip19"><rect x="443" y="136" width="462" height="298"/></clipPath><clipPath id="clip20"><rect x="443" y="136" width="462" height="298"/></clipPath><clipPath id="clip21"><rect x="443" y="136" width="462" height="298"/></clipPath><clipPath id="clip22"><rect x="443" y="136" width="462" height="298"/></clipPath><clipPath id="clip23"><rect x="443" y="136" width="462" height="298"/></clipPath><clipPath id="clip24"><rect x="443" y="136" width="462" height="298"/></clipPath></defs><g clip-path="url(#clip0)" transform="translate(-443 -136)"><g clip-path="url(#clip1)"><path d="M492.5 376.5 873.5 376.5M492.5 351.5 873.5 351.5M492.5 326.5 873.5 326.5M492.5 301.5 873.5 301.5M492.5 276.5 873.5 276.5M492.5 250.5 873.5 250.5M492.5 225.5 873.5 225.5M492.5 200.5 873.5 200.5M492.5 175.5 873.5 175.5M492.5 150.5 873.5 150.5" stroke="#D9D9D9" stroke-linejoin="round" stroke-miterlimit="10" fill="none"/></g><g clip-path="url(#clip2)"><path d="M547.5 150.5 547.5 401.5M601.5 150.5 601.5 401.5M655.5 150.5 655.5 401.5M710.5 150.5 710.5 401.5M764.5 150.5 764.5 401.5M818.5 150.5 818.5 401.5M873.5 150.5 873.5 401.5" stroke="#D9D9D9" stroke-linejoin="round" stroke-miterlimit="10" fill="none"/></g><g clip-path="url(#clip3)"><path d="M0 0 0.000104987 251" stroke="#BFBFBF" stroke-linejoin="round" stroke-miterlimit="10" fill="none" fill-rule="evenodd" transform="matrix(1 0 0 -1 492.5 401.5)"/></g><g clip-path="url(#clip4)"><path d="M492.5 401.5 873.5 401.5" stroke="#BFBFBF" stroke-linejoin="round" stroke-miterlimit="10" fill="none" fill-rule="evenodd"/></g><g clip-path="url(#clip5)"><path d="M538 395.958C538.543 395.958 539.087 396 539.63 395.958 540.174 395.917 540.717 395.75 541.261 395.708 541.804 395.666 542.348 395.708 542.891 395.708 543.435 395.708 543.978 395.708 544.521 395.708 545.065 395.708 545.608 395.75 546.152 395.708 546.695 395.666 547.239 395.499 547.782 395.457 548.326 395.416 548.869 395.499 549.413 395.457 549.956 395.416 550.499 395.249 551.043 395.207 551.586 395.165 552.13 395.249 552.673 395.207 553.217 395.165 553.76 395.04 554.304 394.956 554.847 394.873 555.391 394.748 555.934 394.706 556.477 394.664 557.021 394.748 557.564 394.706 558.108 394.664 558.651 394.497 559.195 394.455 559.738 394.414 560.282 394.455 560.825 394.455 561.369 394.455 561.912 394.497 562.455 394.455 562.999 394.414 563.542 394.247 564.086 394.205 564.629 394.163 565.173 394.205 565.716 394.205 566.26 394.205 566.803 394.247 567.347 394.205 567.89 394.163 568.434 393.996 568.977 393.955 569.52 393.913 570.064 393.955 570.607 393.955 571.151 393.955 571.694 393.955 572.238 393.955 572.781 393.955 573.325 393.996 573.868 393.955 574.412 393.913 574.955 393.746 575.498 393.704 576.042 393.662 576.585 393.746 577.129 393.704 577.672 393.662 578.216 393.495 578.759 393.453 579.303 393.412 579.846 393.453 580.39 393.453 580.933 393.453 581.477 393.495 582.02 393.453 582.563 393.412 583.107 393.286 583.65 393.203 584.194 393.12 584.737 392.994 585.281 392.953 585.824 392.911 586.367 392.994 586.911 392.953 587.454 392.911 587.998 392.786 588.542 392.702 589.085 392.619 589.628 392.493 590.172 392.452 590.715 392.41 591.259 392.493 591.802 392.452 592.346 392.41 592.889 392.243 593.433 392.201 593.976 392.159 594.519 392.159 595.063 392.201 595.606 392.243 596.15 392.41 596.693 392.452 597.237 392.493 597.78 392.452 598.324 392.452 598.867 392.452 599.41 392.493 599.954 392.452 600.497 392.41 601.041 392.243 601.584 392.201 602.128 392.159 602.671 392.243 603.215 392.201 603.758 392.159 604.302 392.034 604.845 391.951 605.389 391.867 605.932 391.784 606.476 391.7 607.019 391.617 607.562 391.491 608.106 391.45 608.649 391.408 609.193 391.533 609.736 391.45 610.28 391.366 610.823 391.116 611.367 390.949 611.91 390.782 612.453 390.782 612.997 390.448 613.54 390.114 614.084 389.696 614.627 388.945 615.171 388.193 615.714 386.732 616.258 385.939 616.801 385.146 617.526 384.77 617.888 384.186 618.25 383.601 618.25 383.142 618.432 382.432 618.613 381.723 618.794 380.804 618.975 379.928 619.156 379.051 619.337 378.216 619.518 377.172 619.7 376.129 619.881 374.834 620.062 373.666 620.243 372.497 620.424 371.453 620.605 370.159 620.786 368.865 620.968 366.861 621.149 365.901 621.271 365.252 621.57 365.187 621.692 364.398 621.873 363.229 622.054 361.434 622.236 358.887 622.417 356.341 622.598 351.54 622.779 349.118 622.958 346.73 623.211 345.43 623.323 344.359 623.414 343.485 623.422 342.976 623.458 342.606 623.504 342.147 623.549 341.855 623.594 341.604 623.618 341.475 623.707 341.362 623.73 341.103 623.775 340.602 623.821 339.433 623.866 338.598 623.911 337.763 623.957 336.636 624.002 336.094 624.034 335.713 624.106 335.488 624.138 335.342 624.183 335.133 624.228 335.008 624.274 334.841 624.313 334.695 624.37 334.597 624.41 334.34 624.455 334.048 624.5 333.464 624.545 333.088 624.591 332.712 624.636 332.461 624.681 332.086 624.727 331.71 624.772 331.334 624.817 330.833 624.862 330.332 624.908 329.665 624.953 329.08 624.998 328.496 625.044 327.953 625.089 327.327 625.134 326.701 625.179 325.949 625.225 325.323 625.27 324.697 625.315 324.237 625.361 323.57 625.406 322.901 625.451 322.108 625.496 321.315 625.542 320.522 625.587 319.645 625.632 318.81 625.678 317.975 625.723 317.099 625.768 316.306 625.813 315.512 625.859 314.844 625.904 314.051 625.949 313.258 625.995 312.423 626.04 311.546 626.085 310.67 626.13 309.71 626.176 308.791 626.221 307.873 626.266 306.913 626.312 306.036 626.357 305.159 626.402 304.324 626.448 303.531 626.493 302.738 626.538 301.903 626.583 301.277 626.629 300.651 626.674 300.317 626.719 299.774 626.765 299.231 626.81 298.563 626.855 298.021 626.9 297.478 626.946 297.019 626.991 296.518 627.032 296.066 627.086 295.768 627.127 295.015 627.172 294.18 627.217 292.134 627.263 291.508 627.273 291.366 627.388 291.371 627.399 291.258 627.444 290.757 627.489 289.379 627.534 288.502 627.58 287.626 627.625 286.791 627.67 285.998 627.716 285.204 627.761 284.369 627.806 283.743 627.851 283.117 627.897 282.699 627.942 282.24 627.987 281.781 628.033 281.364 628.078 280.988 628.123 280.612 628.168 280.32 628.214 279.986 628.259 279.652 628.304 279.235 628.35 278.984 628.395 278.734 628.44 278.692 628.486 278.483 628.531 278.274 628.576 278.024 628.621 277.732 628.667 277.439 628.712 277.064 628.757 276.73 628.802 276.396 628.848 276.062 628.893 275.728 628.938 275.394 628.984 275.143 629.029 274.726 629.074 274.308 629.12 273.766 629.165 273.223 629.21 272.68 629.255 272.054 629.301 271.47 629.346 270.885 629.391 270.259 629.437 269.716 629.482 269.174 629.527 268.756 629.572 268.213 629.618 267.671 629.663 267.045 629.708 266.46 629.754 265.876 629.799 265.208 629.844 264.707 629.889 264.206 629.935 263.955 629.98 263.454 630.025 262.953 630.07 262.244 630.116 261.701 630.161 261.158 630.206 260.657 630.252 260.198 630.297 259.739 630.342 259.321 630.388 258.946 630.433 258.57 630.478 258.236 630.523 257.944 630.569 257.652 630.614 257.443 630.659 257.192 630.705 256.942 630.75 256.65 630.795 256.441 630.84 256.232 630.886 256.149 630.931 255.94 630.976 255.731 631.022 255.481 631.067 255.189 631.112 254.896 631.157 254.437 631.203 254.187 631.248 253.936 631.293 253.936 631.339 253.686 631.384 253.435 631.429 252.976 631.475 252.684 631.52 252.391 631.565 252.183 631.61 251.932 631.656 251.682 631.701 251.431 631.746 251.181 631.792 250.93 631.837 250.68 631.882 250.429 631.927 250.179 631.973 249.928 632.018 249.678 632.063 249.427 632.108 249.177 632.154 248.926 632.199 248.676 632.244 248.384 632.29 248.175 632.335 247.966 632.38 247.841 632.426 247.674 632.471 247.507 632.516 247.34 632.561 247.173 632.607 247.006 632.652 246.839 632.697 246.672 632.742 246.505 632.788 246.38 632.833 246.171 632.878 245.962 632.924 245.628 632.969 245.42 633.014 245.211 633.06 245.086 633.105 244.919 633.15 244.752 633.195 244.585 633.241 244.418 633.286 244.251 633.331 244.084 633.377 243.917 633.422 243.75 633.467 243.583 633.513 243.416 633.558 243.249 633.603 243.124 633.648 242.915 633.694 242.706 633.739 242.372 633.784 242.164 633.829 241.955 633.875 241.871 633.92 241.663 633.965 241.454 634.011 241.162 634.056 240.911 634.101 240.661 634.146 240.368 634.192 240.16 634.237 239.951 634.282 239.826 634.328 239.659 634.373 239.492 634.418 239.408 634.464 239.158 634.509 238.907 634.554 238.365 634.599 238.156 634.63 238.017 634.705 237.989 634.735 237.905 634.78 237.78 634.826 237.613 634.871 237.404 634.916 237.196 634.962 236.862 635.007 236.653 635.052 236.444 635.098 236.361 635.143 236.152 635.188 235.943 635.233 235.568 635.279 235.401 635.316 235.263 635.377 235.253 635.415 235.15 635.46 235.025 635.505 234.816 635.55 234.649 635.596 234.482 635.641 234.315 635.686 234.148 635.732 233.981 635.777 233.856 635.822 233.647 635.867 233.438 635.913 233.063 635.958 232.896 635.995 232.758 636.057 232.748 636.094 232.645 636.139 232.52 636.184 232.27 636.23 232.144 636.267 232.041 636.328 232.031 636.366 231.894 636.411 231.727 636.456 231.309 636.501 231.142 636.539 231.005 636.6 230.995 636.637 230.892 636.683 230.767 636.728 230.558 636.773 230.391 636.818 230.224 636.864 230.057 636.909 229.89 636.954 229.723 637 229.514 637.045 229.389 637.09 229.264 637.135 229.222 637.181 229.139 637.226 229.055 637.271 228.971 637.317 228.888 637.362 228.805 637.407 228.763 637.453 228.638 637.498 228.512 637.543 228.262 637.588 228.137 637.634 228.011 637.679 228.011 637.724 227.886 637.77 227.761 637.815 227.51 637.86 227.385 637.905 227.26 637.951 227.176 637.996 227.135 638.041 227.093 638.087 227.176 638.132 227.135 638.177 227.093 638.222 226.968 638.268 226.884 638.313 226.801 638.358 226.717 638.404 226.634 638.449 226.55 638.494 226.467 638.539 226.383 638.585 226.3 638.63 226.174 638.675 226.133 638.721 226.091 638.766 226.133 638.811 226.133 638.856 226.133 638.902 226.133 638.947 226.133 638.992 226.133 639.038 226.133 639.083 226.133 639.128 226.133 639.173 226.174 639.219 226.133 639.264 226.091 639.309 225.924 639.355 225.882 639.4 225.841 639.445 225.882 639.49 225.882 639.536 225.882 639.581 225.882 639.626 225.882 639.672 225.882 639.717 225.841 639.762 225.882 639.807 225.924 639.853 226.049 639.898 226.133 639.943 226.216 639.989 226.341 640.034 226.383 640.079 226.425 640.125 226.341 640.17 226.383 640.215 226.425 640.26 226.55 640.306 226.634 640.351 226.717 640.396 226.801 640.442 226.884 640.487 226.968 640.532 227.051 640.577 227.135 640.623 227.218 640.668 227.26 640.713 227.385 640.759 227.51 640.804 227.761 640.849 227.886 640.894 228.011 640.94 228.053 640.985 228.137 641.03 228.22 641.076 228.262 641.121 228.387 641.166 228.512 641.211 228.763 641.257 228.888 641.302 229.013 641.347 229.013 641.393 229.139 641.438 229.264 641.483 229.514 641.528 229.64 641.574 229.765 641.619 229.765 641.664 229.89 641.71 230.015 641.755 230.266 641.8 230.391 641.845 230.516 641.891 230.516 641.936 230.641 641.981 230.767 642.027 231.017 642.072 231.142 642.117 231.268 642.162 231.268 642.208 231.393 642.253 231.518 642.298 231.727 642.344 231.894 642.389 232.061 642.434 232.27 642.48 232.395 642.525 232.52 642.57 232.52 642.615 232.645 642.661 232.77 642.706 233.021 642.751 233.146 642.797 233.271 642.842 233.271 642.887 233.397 642.932 233.522 642.978 233.731 643.023 233.898 643.068 234.065 643.113 234.273 643.159 234.399 643.204 234.524 643.249 234.524 643.295 234.649 643.34 234.774 643.385 235.025 643.431 235.15 643.476 235.275 643.521 235.317 643.566 235.401 643.612 235.484 643.657 235.567 643.702 235.651 643.747 235.734 643.793 235.776 643.838 235.901 643.883 236.027 643.929 236.235 643.974 236.402 644.019 236.569 644.065 236.778 644.11 236.903 644.155 237.029 644.2 237.07 644.246 237.154 644.291 237.237 644.336 237.321 644.382 237.404 644.427 237.488 644.472 237.571 644.518 237.655 644.563 237.738 644.608 237.78 644.653 237.905 644.699 238.031 644.744 238.239 644.789 238.406 644.834 238.573 644.88 238.74 644.925 238.907 644.97 239.074 645.016 239.283 645.061 239.408 645.098 239.511 645.159 239.521 645.197 239.659 645.242 239.826 645.287 240.201 645.333 240.41 645.378 240.619 645.423 240.702 645.469 240.911 645.514 241.12 645.559 241.412 645.604 241.663 645.65 241.913 645.695 242.163 645.74 242.414 645.785 242.664 645.831 243.082 645.876 243.165 645.921 243.249 645.967 242.998 646.012 242.915 646.049 242.846 646.11 242.802 646.148 242.664 646.193 242.497 646.238 242.122 646.284 241.913 646.329 241.704 646.374 241.579 646.42 241.412 646.465 241.245 646.51 241.078 646.555 240.911 646.601 240.744 646.646 240.577 646.691 240.41 646.737 240.243 646.782 239.951 646.827 239.909 646.872 239.867 646.918 240.243 646.963 240.16 647.008 240.076 647.054 239.533 647.099 239.408 647.122 239.344 647.212 239.429 647.235 239.408 647.28 239.366 647.325 239.283 647.371 239.158 647.416 239.032 647.461 238.74 647.506 238.657 647.539 238.597 647.61 238.687 647.642 238.657 647.688 238.615 647.733 238.448 647.778 238.406 647.823 238.365 647.869 238.448 647.914 238.406 647.959 238.365 648.005 238.198 648.05 238.156 648.095 238.114 648.141 238.156 648.186 238.156 648.231 238.156 648.276 238.114 648.322 238.156 648.367 238.198 648.412 238.406 648.458 238.406 648.503 238.406 648.548 238.198 648.593 238.156 648.626 238.126 648.697 238.096 648.729 238.156 648.774 238.239 648.82 238.657 648.865 238.657 648.91 238.657 648.956 238.281 649.001 238.156 649.046 238.031 649.092 237.989 649.137 237.905 649.182 237.822 649.227 237.613 649.273 237.655 649.318 237.697 649.363 238.031 649.409 238.156 649.454 238.281 649.499 238.281 649.544 238.406 649.59 238.532 649.635 238.782 649.68 238.907 649.726 239.033 649.771 239.158 649.816 239.158 649.861 239.158 649.907 238.907 649.952 238.907 649.997 238.907 650.043 239.074 650.088 239.158 650.133 239.241 650.178 239.325 650.224 239.408 650.269 239.492 650.314 239.533 650.36 239.659 650.405 239.784 650.45 239.951 650.495 240.16 650.541 240.368 650.586 240.744 650.631 240.911 650.669 241.048 650.73 241.196 650.767 241.162 650.812 241.12 650.858 240.786 650.903 240.661 650.948 240.535 650.994 240.452 651.039 240.41 651.084 240.368 651.13 240.41 651.175 240.41 651.22 240.41 651.265 240.41 651.311 240.41 651.334 240.41 651.423 240.346 651.447 240.41 651.492 240.535 651.537 240.869 651.582 241.162 651.628 241.454 651.673 241.913 651.718 242.164 651.764 242.414 651.809 242.581 651.854 242.664 651.886 242.724 651.958 242.724 651.99 242.664 652.035 242.581 652.081 242.289 652.126 242.164 652.171 242.038 652.216 241.871 652.262 241.913 652.307 241.955 652.352 242.33 652.398 242.414 652.43 242.474 652.501 242.414 652.533 242.414 652.579 242.414 652.624 242.414 652.669 242.414 652.702 242.414 652.773 242.354 652.805 242.414 652.85 242.497 652.896 242.748 652.941 242.915 652.986 243.082 653.032 243.332 653.077 243.416 653.109 243.476 653.18 243.386 653.213 243.416 653.258 243.458 653.303 243.583 653.349 243.666 653.394 243.75 653.439 243.792 653.485 243.917 653.53 244.042 653.575 244.293 653.62 244.418 653.658 244.521 653.719 244.531 653.756 244.668 653.802 244.835 653.847 245.169 653.892 245.42 653.937 245.67 653.983 245.921 654.028 246.171 654.073 246.422 654.118 246.714 654.164 246.923 654.209 247.131 654.254 247.215 654.3 247.424 654.345 247.632 654.39 247.883 654.435 248.175 654.481 248.467 654.526 248.885 654.571 249.177 654.617 249.469 654.662 249.72 654.707 249.928 654.752 250.137 654.798 250.304 654.843 250.429 654.88 250.532 654.942 250.542 654.979 250.68 655.024 250.847 655.07 251.181 655.115 251.431 655.16 251.682 655.205 251.974 655.251 252.183 655.296 252.391 655.341 252.517 655.387 252.684 655.432 252.851 655.477 253.018 655.523 253.185 655.568 253.352 655.613 253.477 655.658 253.686 655.704 253.894 655.749 254.228 655.794 254.437 655.839 254.646 655.885 254.771 655.93 254.938 655.975 255.105 656.021 255.314 656.066 255.439 656.111 255.564 656.156 255.606 656.202 255.689 656.247 255.773 656.292 255.815 656.338 255.94 656.383 256.065 656.428 256.274 656.473 256.441 656.519 256.608 656.564 256.858 656.609 256.942 656.642 257.001 656.713 256.912 656.745 256.942 656.79 256.984 656.836 257.109 656.881 257.192 656.926 257.276 656.972 257.317 657.017 257.443 657.062 257.568 657.107 257.818 657.153 257.944 657.198 258.069 657.243 258.152 657.289 258.194 657.334 258.236 657.379 258.194 657.425 258.194 657.47 258.194 657.515 258.152 657.56 258.194 657.606 258.236 657.651 258.319 657.696 258.445 657.742 258.57 657.787 258.862 657.832 258.946 657.865 259.005 657.936 258.975 657.968 258.946 658.013 258.904 658.059 258.737 658.104 258.695 658.149 258.653 658.194 258.695 658.24 258.695 658.263 258.695 658.352 258.759 658.376 258.695 658.421 258.57 658.466 258.194 658.511 257.944 658.557 257.693 658.602 257.568 658.647 257.192 658.693 256.817 658.738 256.149 658.783 255.689 658.828 255.23 658.874 254.855 658.919 254.437 658.964 254.02 659.01 253.727 659.055 253.185 659.1 252.642 659.145 251.89 659.191 251.181 659.236 250.471 659.281 249.386 659.327 248.926 659.352 248.668 659.437 248.402 659.463 248.426 659.508 248.467 659.553 249.052 659.598 249.177 659.622 249.241 659.711 249.198 659.734 249.177 659.779 249.135 659.825 248.885 659.87 248.926 659.915 248.968 659.961 249.177 660.006 249.427 660.051 249.678 660.097 250.137 660.142 250.429 660.187 250.722 660.232 250.889 660.278 251.181 660.323 251.473 660.368 251.849 660.414 252.183 660.459 252.517 660.504 252.851 660.549 253.185 660.595 253.518 660.64 253.894 660.685 254.187 660.731 254.479 660.776 254.687 660.821 254.938 660.866 255.188 660.912 255.397 660.957 255.689 661.002 255.982 661.047 256.357 661.093 256.691 661.138 257.025 661.183 257.443 661.229 257.693 661.274 257.944 661.319 258.027 661.365 258.194 661.41 258.361 661.455 258.445 661.5 258.695 661.546 258.946 661.591 259.405 661.636 259.697 661.682 259.989 661.727 260.24 661.772 260.449 661.817 260.657 661.863 260.782 661.908 260.949 661.953 261.116 661.999 261.325 662.044 261.45 662.081 261.554 662.142 261.563 662.18 261.701 662.225 261.868 662.27 262.202 662.316 262.452 662.361 262.703 662.406 263.037 662.452 263.204 662.489 263.341 662.55 263.42 662.587 263.454 662.633 263.496 662.678 263.413 662.723 263.454 662.768 263.496 662.814 263.579 662.859 263.705 662.904 263.83 662.95 264.164 662.995 264.206 663.04 264.247 663.085 264.081 663.131 263.955 663.176 263.83 663.221 263.538 663.267 263.454 663.299 263.394 663.37 263.514 663.403 263.454 663.448 263.371 663.493 263.079 663.538 262.953 663.584 262.828 663.629 262.703 663.674 262.703 663.712 262.703 663.773 262.816 663.81 262.953 663.855 263.12 663.901 263.538 663.946 263.705 663.983 263.842 664.045 263.99 664.082 263.955 664.127 263.914 664.172 263.496 664.218 263.454 664.263 263.413 664.308 263.621 664.354 263.705 664.399 263.788 664.444 263.872 664.49 263.955 664.535 264.039 664.58 264.164 664.625 264.206 664.671 264.247 664.716 264.206 664.761 264.206 664.806 264.206 664.852 264.247 664.897 264.206 664.942 264.164 664.988 264.039 665.033 263.955 665.078 263.872 665.123 263.747 665.169 263.705 665.214 263.663 665.259 263.705 665.305 263.705 665.35 263.705 665.395 263.663 665.44 263.705 665.486 263.747 665.531 263.914 665.576 263.955 665.622 263.997 665.667 263.955 665.712 263.955 665.758 263.955 665.803 263.914 665.848 263.955 665.893 263.997 665.939 264.164 665.984 264.206 666.029 264.247 666.075 264.164 666.12 264.206 666.165 264.247 666.21 264.415 666.256 264.456 666.301 264.498 666.346 264.456 666.392 264.456 666.437 264.456 666.482 264.456 666.527 264.456 666.573 264.456 666.618 264.415 666.663 264.456 666.709 264.498 666.754 264.582 666.799 264.707 666.844 264.832 666.89 265.041 666.935 265.208 666.98 265.375 667.026 265.667 667.071 265.709 667.116 265.75 667.161 265.542 667.207 265.458 667.252 265.375 667.297 265.249 667.343 265.208 667.375 265.178 667.446 265.148 667.478 265.208 667.524 265.291 667.569 265.792 667.614 265.709 667.66 265.625 667.705 264.623 667.75 264.707 667.796 264.79 667.841 265.917 667.886 266.21 667.908 266.35 668 266.44 668.022 266.46 668.067 266.502 668.112 266.46 668.158 266.46 668.203 266.46 668.248 266.46 668.294 266.46 668.326 266.46 668.397 266.4 668.43 266.46 668.475 266.544 668.52 266.794 668.565 266.961 668.611 267.128 668.656 267.462 668.701 267.462 668.747 267.462 668.792 267.086 668.837 266.961 668.882 266.836 668.928 266.711 668.973 266.711 669.018 266.711 669.064 266.877 669.109 266.961 669.154 267.044 669.199 267.17 669.245 267.212 669.29 267.253 669.335 267.253 669.381 267.212 669.426 267.17 669.471 266.961 669.516 266.961 669.562 266.961 669.607 267.17 669.652 267.212 669.698 267.253 669.743 267.17 669.788 267.212 669.833 267.253 669.879 267.42 669.924 267.462 669.969 267.504 670.015 267.42 670.06 267.462 670.105 267.504 670.15 267.629 670.196 267.712 670.241 267.796 670.286 267.879 670.332 267.963 670.377 268.046 670.422 268.088 670.468 268.213 670.513 268.339 670.558 268.589 670.603 268.714 670.649 268.84 670.694 268.881 670.739 268.965 670.784 269.048 670.83 269.132 670.875 269.215 670.92 269.299 670.966 269.34 671.011 269.466 671.056 269.591 671.102 269.841 671.147 269.967 671.192 270.092 671.237 270.092 671.283 270.217 671.328 270.342 671.373 270.593 671.419 270.718 671.464 270.844 671.509 270.885 671.554 270.969 671.6 271.052 671.645 271.094 671.69 271.219 671.736 271.344 671.781 271.595 671.826 271.72 671.871 271.845 671.917 271.887 671.962 271.971 672.007 272.054 672.053 272.096 672.098 272.221 672.143 272.346 672.188 272.597 672.234 272.722 672.279 272.847 672.324 272.889 672.37 272.973 672.415 273.056 672.46 273.098 672.505 273.223 672.551 273.348 672.596 273.557 672.641 273.724 672.687 273.891 672.732 274.1 672.777 274.225 672.822 274.35 672.868 274.392 672.913 274.475 672.958 274.559 673.004 274.601 673.049 274.726 673.094 274.851 673.14 275.102 673.185 275.227 673.23 275.352 673.275 275.352 673.321 275.477 673.366 275.603 673.411 275.811 673.457 275.978 673.502 276.145 673.547 276.354 673.592 276.479 673.638 276.605 673.683 276.605 673.728 276.73 673.773 276.855 673.819 277.105 673.864 277.231 673.909 277.356 673.955 277.356 674 277.481 674.045 277.606 674.091 277.815 674.136 277.982 674.181 278.149 674.226 278.4 674.272 278.483 674.304 278.543 674.375 278.453 674.408 278.483 674.453 278.525 674.498 278.65 674.543 278.734 674.589 278.817 674.634 278.901 674.679 278.984 674.725 279.068 674.77 279.151 674.815 279.235 674.86 279.318 674.906 279.36 674.951 279.485 674.996 279.61 675.042 279.902 675.087 279.986 675.119 280.046 675.19 280.016 675.223 279.986 675.268 279.944 675.313 279.819 675.359 279.736 675.404 279.652 675.449 279.485 675.495 279.485 675.54 279.485 675.585 279.652 675.63 279.736 675.676 279.819 675.721 279.986 675.766 279.986 675.811 279.986 675.857 279.777 675.902 279.736 675.947 279.694 675.993 279.777 676.038 279.736 676.083 279.694 676.129 279.568 676.174 279.485 676.219 279.401 676.264 279.276 676.31 279.235 676.355 279.193 676.4 279.235 676.446 279.235 676.491 279.235 676.536 279.235 676.581 279.235 676.627 279.235 676.672 279.235 676.717 279.235 676.763 279.235 676.808 279.235 676.853 279.235 676.898 279.235 676.944 279.276 676.989 279.235 677.034 279.193 677.08 279.026 677.125 278.984 677.17 278.942 677.215 278.984 677.261 278.984 677.306 278.984 677.351 278.942 677.397 278.984 677.442 279.026 677.487 279.193 677.532 279.235 677.578 279.276 677.623 279.235 677.668 279.235 677.714 279.235 677.759 279.235 677.804 279.235 677.849 279.235 677.895 279.235 677.94 279.235 677.985 279.235 678.031 279.235 678.076 279.235 678.121 279.235 678.166 279.235 678.212 279.235 678.257 279.235 678.302 279.235 678.348 279.235 678.393 279.235 678.438 279.193 678.484 279.235 678.529 279.276 678.574 279.401 678.619 279.485 678.665 279.568 678.71 279.694 678.755 279.736 678.801 279.777 678.846 279.694 678.891 279.736 678.936 279.777 678.982 279.944 679.027 279.986 679.072 280.028 679.117 279.944 679.163 279.986 679.208 280.028 679.253 280.153 679.299 280.237 679.344 280.32 679.389 280.403 679.435 280.487 679.48 280.57 679.525 280.654 679.57 280.737 679.616 280.821 679.661 280.904 679.706 280.988 679.751 281.071 679.797 281.155 679.842 281.238 679.887 281.322 679.933 281.405 679.978 281.489 680.023 281.572 680.069 281.614 680.114 281.739 680.159 281.865 680.204 282.073 680.25 282.24 680.295 282.407 680.34 282.574 680.386 282.741 680.431 282.908 680.476 283.117 680.522 283.242 680.567 283.367 680.612 283.367 680.657 283.493 680.703 283.618 680.748 283.827 680.793 283.994 680.839 284.161 680.884 284.328 680.929 284.495 680.974 284.662 681.02 284.87 681.065 284.996 681.11 285.121 681.155 285.121 681.201 285.246 681.246 285.371 681.291 285.622 681.337 285.747 681.382 285.872 681.427 285.914 681.473 285.998 681.518 286.081 681.563 286.164 681.608 286.248 681.654 286.331 681.699 286.415 681.744 286.498 681.789 286.582 681.835 286.665 681.88 286.749 681.925 286.832 681.971 286.958 682.016 286.999 682.061 287.041 682.107 286.958 682.152 286.999 682.197 287.041 682.242 287.208 682.288 287.25 682.333 287.292 682.378 287.208 682.424 287.25 682.469 287.292 682.514 287.459 682.56 287.5 682.605 287.542 682.65 287.459 682.695 287.5 682.741 287.542 682.786 287.667 682.831 287.751 682.876 287.834 682.922 287.96 682.967 288.001 683.012 288.043 683.058 287.96 683.103 288.001 683.148 288.043 683.193 288.21 683.239 288.252 683.284 288.294 683.329 288.21 683.375 288.252 683.42 288.294 683.465 288.461 683.51 288.502 683.556 288.544 683.601 288.461 683.646 288.502 683.692 288.544 683.737 288.711 683.782 288.753 683.827 288.794 683.873 288.711 683.918 288.753 683.963 288.794 684.009 288.961 684.054 289.003 684.099 289.045 684.144 289.003 684.19 289.003 684.235 289.003 684.28 288.961 684.326 289.003 684.371 289.045 684.416 289.212 684.462 289.254 684.507 289.295 684.552 289.254 684.597 289.254 684.643 289.254 684.688 289.212 684.733 289.254 684.779 289.295 684.824 289.421 684.869 289.504 684.914 289.588 684.96 289.713 685.005 289.755 685.05 289.796 685.096 289.755 685.141 289.755 685.186 289.755 685.231 289.713 685.277 289.755 685.322 289.796 685.367 289.963 685.413 290.005 685.458 290.047 685.503 290.005 685.548 290.005 685.594 290.005 685.639 290.005 685.684 290.005 685.73 290.005 685.775 289.963 685.82 290.005 685.865 290.047 685.911 290.214 685.956 290.256 686.001 290.297 686.047 290.214 686.092 290.256 686.137 290.297 686.182 290.464 686.228 290.506 686.273 290.548 686.318 290.464 686.364 290.506 686.409 290.548 686.454 290.715 686.5 290.757 686.545 290.798 686.59 290.715 686.635 290.757 686.681 290.798 686.726 290.965 686.771 291.007 686.816 291.049 686.862 290.965 686.907 291.007 686.952 291.049 686.998 291.216 687.043 291.258 687.088 291.299 687.134 291.216 687.179 291.258 687.224 291.299 687.269 291.466 687.315 291.508 687.36 291.55 687.405 291.508 687.451 291.508 687.496 291.508 687.541 291.466 687.586 291.508 687.632 291.55 687.677 291.717 687.722 291.759 687.768 291.8 687.813 291.717 687.858 291.759 687.903 291.8 687.949 291.967 687.994 292.009 688.039 292.051 688.084 291.967 688.13 292.009 688.175 292.051 688.22 292.218 688.266 292.26 688.311 292.301 688.356 292.26 688.402 292.26 688.447 292.26 688.492 292.218 688.537 292.26 688.583 292.301 688.628 292.468 688.673 292.51 688.719 292.552 688.764 292.51 688.809 292.51 688.854 292.51 688.9 292.468 688.945 292.51 688.99 292.552 689.036 292.719 689.081 292.761 689.126 292.802 689.172 292.719 689.217 292.761 689.262 292.802 689.307 292.969 689.353 293.011 689.398 293.053 689.443 293.011 689.489 293.011 689.534 293.011 689.579 292.969 689.624 293.011 689.67 293.053 689.715 293.22 689.76 293.261 689.806 293.303 689.851 293.22 689.896 293.261 689.941 293.303 689.987 293.47 690.032 293.512 690.077 293.554 690.122 293.47 690.168 293.512 690.213 293.554 690.258 293.721 690.304 293.762 690.349 293.804 690.394 293.762 690.44 293.762 690.485 293.762 690.53 293.721 690.575 293.762 690.621 293.804 690.666 293.971 690.711 294.013 690.756 294.055 690.802 293.971 690.847 294.013 690.892 294.055 690.938 294.222 690.983 294.263 691.028 294.305 691.074 294.263 691.119 294.263 691.157 294.263 691.197 294.228 691.255 294.263 691.323 294.305 691.436 294.43 691.526 294.514 691.617 294.597 691.708 294.723 691.798 294.764 691.889 294.806 691.979 294.723 692.07 294.764 692.161 294.806 692.251 294.931 692.342 295.015 692.432 295.098 692.523 295.182 692.613 295.265 692.704 295.349 692.795 295.474 692.885 295.516 692.976 295.557 693.066 295.474 693.157 295.516 693.247 295.557 693.338 295.724 693.429 295.766 693.519 295.808 693.61 295.724 693.7 295.766 693.791 295.808 693.881 295.933 693.972 296.017 694.063 296.1 694.153 296.225 694.244 296.267 694.334 296.309 694.425 296.225 694.515 296.267 694.606 296.309 694.697 296.476 694.787 296.518 694.878 296.559 694.968 296.476 695.059 296.518 695.149 296.559 695.24 296.726 695.331 296.768 695.421 296.81 695.512 296.726 695.602 296.768 695.693 296.81 695.784 296.935 695.874 297.019 695.965 297.102 696.055 297.227 696.146 297.269 696.236 297.311 696.327 297.227 696.418 297.269 696.508 297.311 696.599 297.478 696.689 297.52 696.78 297.561 696.87 297.478 696.961 297.52 697.052 297.561 697.142 297.687 697.233 297.77 697.323 297.854 697.414 297.979 697.505 298.021 697.595 298.062 697.686 297.979 697.776 298.021 697.867 298.062 697.957 298.229 698.048 298.271 698.139 298.313 698.229 298.229 698.32 298.271 698.41 298.313 698.501 298.438 698.591 298.522 698.682 298.605 698.773 298.689 698.863 298.772 698.954 298.855 699.044 298.981 699.135 299.023 699.225 299.064 699.316 298.981 699.407 299.023 699.497 299.064 699.588 299.189 699.678 299.273 699.769 299.356 699.859 299.44 699.95 299.523 700.041 299.607 700.131 299.732 700.222 299.774 700.312 299.816 700.403 299.732 700.494 299.774 700.584 299.816 700.675 299.941 700.765 300.024 700.856 300.108 700.946 300.191 701.037 300.275 701.128 300.358 701.218 300.442 701.309 300.525 701.399 300.609 701.49 300.692 701.58 300.776 701.671 300.859 701.762 300.985 701.852 301.026 701.943 301.068 702.033 300.985 702.124 301.026 702.214 301.068 702.305 301.193 702.396 301.277 702.486 301.36 702.577 301.444 702.667 301.527 702.758 301.611 702.848 301.652 702.939 301.778 703.03 301.903 703.12 302.237 703.211 302.279 703.301 302.32 703.392 302.028 703.482 302.028 703.573 302.028 703.664 302.195 703.754 302.279 703.845 302.362 703.935 302.446 704.026 302.529 704.117 302.613 704.207 302.696 704.298 302.78 704.388 302.863 704.479 302.947 704.569 303.03 704.66 303.114 704.751 303.197 704.841 303.281 704.932 303.364 705.022 303.489 705.113 303.531 705.203 303.573 705.294 303.489 705.385 303.531 705.475 303.573 705.566 303.698 705.656 303.782 705.747 303.865 705.838 303.949 705.928 304.032 706.019 304.116 706.109 304.199 706.2 304.283 706.29 304.366 706.381 304.449 706.471 304.533 706.562 304.616 706.653 304.7 706.743 304.784 706.834 304.867 706.924 304.951 707.015 305.034 707.106 305.117 707.196 305.201 707.287 305.284 707.377 305.368 707.468 305.493 707.558 305.535 707.649 305.577 707.74 305.493 707.83 305.535 707.921 305.577 708.011 305.702 708.102 305.785 708.192 305.869 708.283 305.952 708.374 306.036 708.464 306.119 708.555 306.203 708.645 306.286 708.736 306.37 708.827 306.453 708.917 306.537 709.008 306.62 709.098 306.704 709.189 306.787 709.279 306.871 709.37 306.954 709.461 307.038 709.551 307.121 709.642 307.205 709.732 307.288 709.823 307.372 709.913 307.455 710.004 307.539 710.095 307.622 710.185 307.706 710.276 307.789 710.366 307.873 710.457 307.956 710.547 308.04 710.638 308.123 710.729 308.207 710.819 308.29 710.91 308.374 711 308.457 711.091 308.541 711.181 308.624 711.272 308.708 711.363 308.791 711.453 308.875 711.544 308.958 711.634 309.042 711.725 309.125 711.815 309.209 711.906 309.292 711.997 309.376 712.087 309.459 712.178 309.543 712.268 309.626 712.359 309.71 712.45 309.793 712.54 309.877 712.631 309.96 712.721 310.044 712.812 310.127 712.902 310.211 712.993 310.294 713.084 310.378 713.174 310.461 713.265 310.545 713.355 310.628 713.446 310.712 713.536 310.795 713.627 310.879 713.718 310.962 713.808 311.046 713.899 311.129 713.989 311.212 714.08 311.296 714.171 311.379 714.261 311.463 714.352 311.546 714.442 311.63 714.533 311.713 714.623 311.797 714.714 311.88 714.805 311.964 714.895 312.047 714.986 312.131 715.076 312.256 715.167 312.298 715.257 312.34 715.348 312.256 715.439 312.298 715.529 312.34 715.62 312.465 715.71 312.548 715.801 312.632 715.891 312.715 715.982 312.799 716.073 312.882 716.163 312.966 716.254 313.049 716.344 313.133 716.435 313.258 716.525 313.3 716.616 313.342 716.707 313.258 716.797 313.3 716.888 313.342 716.978 313.467 717.069 313.55 717.16 313.634 717.25 313.717 717.341 313.801 717.431 313.884 717.522 314.009 717.612 314.051 717.703 314.093 717.794 314.009 717.884 314.051 717.975 314.093 718.065 314.218 718.156 314.302 718.246 314.385 718.337 314.51 718.428 314.552 718.518 314.594 718.609 314.51 718.699 314.552 718.79 314.594 718.88 314.761 718.971 314.803 719.062 314.844 719.152 314.803 719.243 314.803 719.333 314.803 719.424 314.761 719.514 314.803 719.605 314.844 719.696 315.012 719.786 315.053 719.877 315.095 719.967 315.053 720.058 315.053 720.148 315.053 720.239 315.053 720.33 315.053 720.42 315.053 720.511 315.053 720.601 315.053 720.692 315.053 720.782 315.053 720.873 315.053 720.964 315.053 721.054 315.053 721.145 315.053 721.235 315.053 721.326 315.053 721.417 315.053 721.507 315.053 721.598 315.053 721.688 315.053 721.779 315.053 721.87 315.053 721.96 315.053 722.051 315.053 722.141 315.095 722.232 315.053 722.322 315.012 722.413 314.844 722.504 314.803 722.594 314.761 722.685 314.803 722.775 314.803 722.866 314.803 722.956 314.844 723.047 314.803 723.138 314.761 723.228 314.594 723.319 314.552 723.409 314.51 723.5 314.552 723.59 314.552 723.681 314.552 723.772 314.594 723.862 314.552 723.953 314.51 724.043 314.26 724.134 314.302 724.224 314.344 724.315 314.844 724.406 314.803 724.496 314.761 724.587 314.26 724.677 314.051 724.768 313.842 724.858 313.676 724.949 313.55 725.04 313.425 725.13 313.383 725.221 313.3 725.311 313.216 725.402 313.175 725.493 313.049 725.583 312.924 725.674 312.715 725.764 312.548 725.855 312.381 725.945 312.256 726.036 312.047 726.127 311.839 726.217 311.546 726.308 311.296 726.398 311.045 726.489 310.795 726.579 310.545 726.67 310.294 726.761 310.085 726.851 309.793 726.942 309.501 727.032 309.083 727.123 308.791 727.214 308.499 727.304 308.29 727.395 308.04 727.485 307.789 727.576 307.581 727.666 307.288 727.757 306.996 727.847 306.704 727.938 306.286 728.029 305.869 728.119 305.284 728.21 304.784 728.3 304.283 728.391 303.907 728.482 303.281 728.572 302.654 728.663 301.861 728.753 301.026 728.844 300.191 728.934 299.148 729.025 298.271 729.116 297.394 729.206 296.601 729.297 295.766 729.387 294.931 729.478 294.055 729.568 293.261 729.659 292.468 729.75 291.8 729.84 291.007 729.931 290.214 730.021 289.546 730.112 288.502 730.203 287.459 730.293 286.039 730.384 284.745 730.474 283.451 730.565 281.906 730.655 280.737 730.746 279.569 730.837 278.65 730.927 277.732 731.018 276.813 731.108 276.145 731.199 275.227 731.289 274.308 731.38 273.056 731.471 272.221 731.561 271.386 731.652 271.01 731.742 270.217 731.833 269.424 731.923 268.589 732.014 267.462 732.105 266.335 732.195 264.707 732.286 263.454 732.376 262.202 732.467 261.242 732.557 259.948 732.648 258.653 732.739 257.192 732.829 255.689 732.92 254.186 733.01 252.475 733.101 250.93 733.191 249.386 733.282 247.841 733.373 246.422 733.463 245.002 733.554 243.625 733.644 242.414 733.735 241.203 733.825 240.368 733.916 239.158 734.007 237.947 734.097 236.277 734.188 235.15 734.278 234.023 734.369 233.271 734.46 232.395 734.55 231.518 734.641 230.767 734.731 229.89 734.822 229.013 734.912 228.095 735.003 227.135 735.094 226.174 735.184 225.006 735.275 224.129 735.365 223.252 735.456 222.668 735.547 221.875 735.637 221.081 735.728 220.205 735.818 219.37 735.909 218.535 735.999 217.7 736.09 216.865 736.18 216.03 736.271 215.112 736.362 214.36 736.452 213.609 736.543 213.066 736.633 212.356 736.724 211.647 736.815 210.812 736.905 210.102 736.996 209.392 737.086 208.683 737.177 208.098 737.267 207.514 737.358 207.096 737.448 206.595 737.539 206.094 737.63 205.552 737.72 205.092 737.811 204.633 737.901 204.216 737.992 203.84 738.083 203.464 738.173 203.172 738.264 202.838 738.354 202.504 738.445 202.17 738.536 201.836 738.626 201.502 738.717 201.126 738.807 200.834 738.898 200.542 738.988 200.292 739.079 200.083 739.17 199.874 739.26 199.665 739.351 199.582 739.441 199.498 739.532 199.54 739.622 199.582 739.713 199.624 739.804 199.916 739.894 199.832 739.955 199.776 740.105 199.476 740.166 199.081 740.256 198.496 740.347 197.536 740.438 196.326 740.528 195.115 740.619 193.362 740.709 191.817 740.8 190.272 740.89 188.477 740.981 187.058 741.072 185.638 741.162 184.344 741.253 183.301 741.343 182.257 741.434 181.506 741.524 180.796 741.615 180.086 741.706 179.46 741.796 179.043 741.881 178.652 741.983 178.447 742.068 178.291 742.156 178.129 742.251 178 742.34 178.041 742.43 178.082 742.521 178.416 742.611 178.542 742.702 178.667 742.793 178.667 742.883 178.792 742.974 178.917 743.064 179.209 743.155 179.293 743.245 179.376 743.336 179.209 743.427 179.293 743.517 179.376 743.608 179.71 743.698 179.794 743.789 179.877 743.88 179.794 743.97 179.794 744.061 179.794 744.151 179.794 744.242 179.794 744.332 179.794 744.423 179.752 744.513 179.794 744.604 179.836 744.695 179.961 744.785 180.044 744.859 180.112 744.983 180.125 745.057 180.295 745.148 180.504 745.238 181.005 745.329 181.297 745.419 181.589 745.51 181.714 745.6 182.048 745.691 182.382 745.781 182.841 745.872 183.301 745.963 183.76 746.053 184.303 746.144 184.804 746.234 185.304 746.325 185.847 746.416 186.306 746.506 186.766 746.597 187.141 746.687 187.559 746.778 187.976 746.869 188.394 746.959 188.811 747.05 189.229 747.14 189.688 747.231 190.064 747.321 190.439 747.412 190.773 747.503 191.066 747.593 191.358 747.684 191.525 747.774 191.817 747.865 192.109 747.955 192.568 748.046 192.819 748.137 193.069 748.227 193.111 748.318 193.32 748.408 193.529 748.499 193.821 748.589 194.071 748.68 194.322 748.771 194.614 748.861 194.823 748.952 195.031 749.042 195.157 749.133 195.324 749.223 195.491 749.314 195.658 749.405 195.825 749.495 195.992 749.586 196.159 749.676 196.326 749.767 196.493 749.857 196.66 749.948 196.827 750.039 196.994 750.129 197.202 750.22 197.328 750.31 197.453 750.401 197.495 750.491 197.578 750.58 197.659 750.675 197.666 750.763 197.829 750.854 197.995 750.944 198.371 751.035 198.58 751.126 198.789 751.216 199.164 751.307 199.081 751.397 198.997 751.488 198.121 751.578 198.079 751.669 198.037 751.76 198.663 751.85 198.83 751.938 198.993 752.034 199.121 752.122 199.081 752.213 199.039 752.303 198.705 752.394 198.58 752.484 198.455 752.575 198.413 752.665 198.329 752.756 198.246 752.846 198.162 752.937 198.079 753.028 197.995 753.118 197.87 753.209 197.829 753.299 197.787 753.39 197.829 753.481 197.829 753.571 197.829 753.662 197.787 753.752 197.829 753.843 197.87 753.933 198.079 754.024 198.079 754.112 198.079 754.208 197.991 754.296 197.829 754.386 197.662 754.477 197.286 754.567 197.077 754.658 196.868 754.749 196.701 754.839 196.576 754.93 196.451 755.02 196.451 755.111 196.326 755.201 196.2 755.292 195.992 755.383 195.825 755.473 195.658 755.564 195.532 755.654 195.324 755.745 195.115 755.836 194.614 755.926 194.572 756.017 194.531 756.107 195.073 756.198 195.073 756.288 195.073 756.379 194.698 756.47 194.572 756.56 194.447 756.651 194.405 756.741 194.322 756.832 194.238 756.922 194.113 757.013 194.071 757.104 194.03 757.194 194.113 757.285 194.071 757.375 194.03 757.466 193.904 757.556 193.821 757.647 193.737 757.738 193.654 757.828 193.57 757.919 193.487 758.009 193.278 758.1 193.32 758.19 193.362 758.281 193.821 758.372 193.821 758.462 193.821 758.553 193.487 758.643 193.32 758.734 193.153 758.824 193.028 758.915 192.819 759.006 192.61 759.096 192.151 759.187 192.067 759.23 192.027 759.415 192.138 759.458 192.318 759.549 192.694 759.64 194.238 759.73 194.322 759.821 194.405 759.911 193.111 760.002 192.819 760.057 192.642 760.219 192.518 760.274 192.568 760.364 192.652 760.455 193.32 760.546 193.32 760.636 193.32 760.727 192.694 760.817 192.568 760.897 192.458 761.009 192.568 761.089 192.568 761.18 192.568 761.27 192.527 761.361 192.568 761.451 192.61 761.542 192.777 761.632 192.819 761.723 192.861 761.814 192.902 761.904 192.819 761.995 192.735 762.085 192.234 762.176 192.318 762.266 192.401 762.357 193.236 762.448 193.32 762.538 193.403 762.629 192.944 762.719 192.819 762.81 192.694 762.9 192.568 762.991 192.568 763.082 192.568 763.172 192.819 763.263 192.819 763.336 192.819 763.461 192.399 763.534 192.568 763.625 192.777 763.716 194.071 763.806 194.071 763.897 194.071 763.987 192.694 764.078 192.568 764.169 192.443 764.259 193.111 764.35 193.32 764.44 193.529 764.531 193.654 764.621 193.821 764.712 193.988 764.803 194.322 764.893 194.322 764.984 194.322 765.074 193.863 765.165 193.821 765.208 193.801 765.393 194.251 765.437 194.071 765.527 193.696 765.618 191.358 765.708 191.567 765.799 191.775 765.889 194.948 765.98 195.324 766.071 195.699 766.161 193.988 766.252 193.821 766.342 193.654 766.433 194.113 766.523 194.322 766.614 194.531 766.705 194.948 766.795 195.073 766.841 195.137 767.021 195.201 767.067 195.073 767.157 194.823 767.248 193.529 767.339 193.57 767.429 193.612 767.52 194.99 767.61 195.324 767.659 195.502 767.834 195.596 767.882 195.574 767.957 195.54 768.079 194.798 768.154 195.073 768.245 195.407 768.335 197.411 768.426 197.578 768.516 197.745 768.607 196.117 768.697 196.075 768.788 196.033 768.878 197.202 768.969 197.328 769.06 197.453 769.15 197.077 769.241 196.827 769.331 196.576 769.422 195.825 769.513 195.825 769.603 195.825 769.694 196.451 769.784 196.827 769.875 197.202 769.965 197.745 770.056 198.079 770.147 198.413 770.237 198.872 770.328 198.83 770.418 198.789 770.509 197.912 770.599 197.829 770.684 197.751 770.787 198.057 770.871 198.329 770.962 198.622 771.052 199.415 771.143 199.582 771.231 199.744 771.326 199.25 771.415 199.331 771.505 199.415 771.596 199.791 771.686 200.083 771.777 200.375 771.867 200.96 771.958 201.085 772.046 201.207 772.142 200.672 772.23 200.834 772.32 201.001 772.411 202.045 772.502 202.087 772.592 202.128 772.683 200.793 772.773 201.085 772.864 201.377 772.954 203.381 773.045 203.84 773.071 203.973 773.29 203.804 773.317 203.84 773.367 203.91 773.538 204.195 773.588 204.592 773.679 205.301 773.77 207.263 773.86 208.098 773.942 208.857 774.049 209.108 774.132 209.601 774.176 209.863 774.36 210.468 774.404 211.354 774.494 213.191 774.585 215.988 774.675 220.622 774.766 225.256 774.856 232.896 774.947 239.158 775.038 245.42 775.128 254.521 775.219 258.194 775.256 259.703 775.453 261.577 775.49 261.2 775.581 260.282 775.672 255.481 775.762 252.684 775.853 249.887 775.943 246.714 776.034 244.418 776.125 242.122 776.215 240.327 776.306 238.907 776.396 237.488 776.487 235.818 776.577 235.901 776.668 235.985 776.759 238.156 776.849 239.408 776.926 240.464 777.045 241.409 777.121 243.416 777.212 245.795 777.302 249.386 777.393 253.686 777.483 257.985 777.574 266.001 777.664 269.215 777.717 271.098 777.883 273.584 777.936 272.973 778.027 271.929 778.117 267.712 778.208 262.953 778.298 258.194 778.389 248.551 778.48 244.418 778.548 241.285 778.682 239.105 778.751 238.156 778.797 237.517 778.977 236.882 779.023 236.903 779.061 236.921 779.257 237.643 779.295 238.406 779.385 240.243 779.476 244 779.566 247.925 779.657 251.849 779.748 257.192 779.838 261.951 779.929 266.711 780.019 273.014 780.11 276.479 780.192 279.612 780.3 280.967 780.382 282.741 780.472 284.703 780.563 287.208 780.653 288.252 780.688 288.65 780.891 289.003 780.925 289.003 781.01 289.003 781.112 288.642 781.197 288.252 781.241 288.05 781.425 287.384 781.469 286.498 781.559 284.662 781.65 280.111 781.74 277.231 781.831 274.35 781.921 270.342 782.012 269.215 782.063 268.577 782.232 270.018 782.284 270.468 782.333 270.896 782.507 272.217 782.555 273.975 782.646 277.231 782.737 285.789 782.827 290.005 782.918 294.222 783.008 297.019 783.099 299.273 783.185 301.405 783.285 303.176 783.371 303.531 783.408 303.688 783.604 302.538 783.642 301.527 783.733 299.106 783.823 292.426 783.914 289.003 784.005 285.58 784.095 282.157 784.186 280.988 784.204 280.746 784.439 281.471 784.458 281.99 784.548 284.495 784.639 291.8 784.729 296.017 784.82 300.233 784.91 304.408 785.001 307.288 785.092 310.169 785.182 312.047 785.273 313.3 785.328 314.061 785.489 314.574 785.544 314.803 785.635 315.178 785.726 315.554 785.816 315.554 785.907 315.554 785.997 314.844 786.088 314.803 786.172 314.764 786.275 315.576 786.36 315.304 786.45 315.012 786.541 314.051 786.631 313.049 786.722 312.047 786.813 310.294 786.903 309.292 786.994 308.29 787.084 307.33 787.175 307.038 787.2 306.955 787.421 307.255 787.447 307.539 787.537 308.541 787.628 311.672 787.718 313.049 787.809 314.427 787.899 314.677 787.99 315.805 788.081 316.932 788.171 318.602 788.262 319.812 788.352 321.023 788.443 322.192 788.533 323.069 788.624 323.945 788.715 324.488 788.805 325.072 788.896 325.657 788.986 325.907 789.077 326.575 789.167 327.243 789.258 328.663 789.349 329.08 789.373 329.191 789.596 329.214 789.62 329.08 789.706 328.604 789.806 327.581 789.892 326.074 789.983 324.488 790.073 320.355 790.164 319.562 790.204 319.211 790.396 320.429 790.436 321.315 790.526 323.319 790.617 328.871 790.707 331.585 790.798 334.298 790.888 335.968 790.979 337.596 791.07 339.224 791.16 340.226 791.251 341.354 791.341 342.481 791.432 343.399 791.523 344.359 791.613 345.32 791.704 346.572 791.794 347.115 791.841 347.396 792.019 347.508 792.066 347.616 792.156 347.824 792.247 348.617 792.338 348.367 792.428 348.116 792.519 346.28 792.609 346.113 792.7 345.946 792.791 346.781 792.881 347.365 792.972 347.95 793.062 349.118 793.153 349.62 793.224 350.013 793.353 350.338 793.425 350.371 793.515 350.413 793.606 349.995 793.696 349.87 793.787 349.745 793.878 349.661 793.968 349.62 794.059 349.578 794.149 349.661 794.24 349.62 794.33 349.578 794.421 349.411 794.512 349.369 794.602 349.327 794.693 349.327 794.783 349.369 794.874 349.411 794.964 349.536 795.055 349.62 795.146 349.703 795.236 349.786 795.327 349.87 795.417 349.953 795.508 349.995 795.598 350.12 795.689 350.246 795.78 350.413 795.87 350.621 795.961 350.83 796.051 351.081 796.142 351.373 796.232 351.665 796.323 351.999 796.414 352.375 796.504 352.75 796.595 353.168 796.685 353.627 796.776 354.086 796.866 354.671 796.957 355.13 797.048 355.589 797.138 355.923 797.229 356.382 797.307 356.78 797.422 357.126 797.5 357.885 797.591 358.762 797.682 360.724 797.772 361.643 797.859 362.525 797.957 362.954 798.044 363.396 798.135 363.855 798.225 364.272 798.316 364.398 798.404 364.52 798.499 364.31 798.587 364.147 798.678 363.98 798.769 363.73 798.859 363.396 798.95 363.062 799.04 362.519 799.131 362.143 799.221 361.768 799.312 361.434 799.403 361.142 799.493 360.849 799.584 360.474 799.674 360.39 799.748 360.322 799.872 360.471 799.946 360.641 800.037 360.849 800.127 361.267 800.218 361.643 800.308 362.018 800.399 362.394 800.49 362.895 800.58 363.396 800.671 364.022 800.761 364.648 800.852 365.274 800.942 365.942 801.033 366.652 801.124 367.362 801.214 368.322 801.305 368.906 801.395 369.491 801.486 369.574 801.576 370.159 801.667 370.743 801.758 371.703 801.848 372.413 801.939 373.123 802.029 373.666 802.12 374.417 802.21 375.169 802.301 376.087 802.392 376.922 802.482 377.757 802.573 378.675 802.663 379.427 802.754 380.178 802.845 380.721 802.935 381.43 803.026 382.14 803.116 383.184 803.207 383.685 803.278 384.078 803.407 384.305 803.479 384.436 803.567 384.599 803.662 384.768 803.75 384.687 803.841 384.603 803.931 384.144 804.022 383.935 804.106 383.741 804.209 383.706 804.294 383.434 804.384 383.142 804.475 382.558 804.565 382.182 804.656 381.806 804.747 381.472 804.837 381.18 804.928 380.888 805.018 380.679 805.109 380.429 805.199 380.178 805.29 379.928 805.381 379.677 805.471 379.427 805.562 379.093 805.652 378.926 805.74 378.763 805.836 378.716 805.924 378.675 806.015 378.633 806.105 378.675 806.196 378.675 806.286 378.675 806.377 378.592 806.468 378.675 806.558 378.759 806.649 378.926 806.739 379.176 806.83 379.427 806.921 379.802 807.011 380.178 807.102 380.554 807.192 380.846 807.283 381.43 807.373 382.015 807.464 382.933 807.555 383.685 807.645 384.436 807.736 385.313 807.826 385.939 807.917 386.565 808.007 387.15 808.098 387.442 808.153 387.618 808.315 387.667 808.37 387.692 808.46 387.734 808.551 387.692 808.641 387.692 808.732 387.692 808.823 387.692 808.913 387.692 809.004 387.692 809.094 387.651 809.185 387.692 809.275 387.734 809.366 387.901 809.457 387.943 809.547 387.985 809.638 387.943 809.728 387.943 809.819 387.943 809.909 387.943 810 387.943" stroke="#FFCA08" stroke-width="2" stroke-linecap="round" stroke-linejoin="round" stroke-miterlimit="10" fill="none"/></g><g clip-path="url(#clip6)"><text fill="#595959" font-family="Microsoft YaHei,Microsoft YaHei_MSFontService,sans-serif" font-weight="400" transform="translate(473.505 405)">0</text></g><g clip-path="url(#clip7)"><text fill="#595959" font-family="Microsoft YaHei,Microsoft YaHei_MSFontService,sans-serif" font-weight="400" transform="translate(459.425 380)">100</text></g><g clip-path="url(#clip8)"><text fill="#595959" font-family="Microsoft YaHei,Microsoft YaHei_MSFontService,sans-serif" font-weight="400" transform="translate(459.425 355)">200</text></g><g clip-path="url(#clip9)"><text fill="#595959" font-family="Microsoft YaHei,Microsoft YaHei_MSFontService,sans-serif" font-weight="400" transform="translate(459.425 330)">300</text></g><g clip-path="url(#clip10)"><text fill="#595959" font-family="Microsoft YaHei,Microsoft YaHei_MSFontService,sans-serif" font-weight="400" transform="translate(459.425 305)">400</text></g><g clip-path="url(#clip11)"><text fill="#595959" font-family="Microsoft YaHei,Microsoft YaHei_MSFontService,sans-serif" font-weight="400" transform="translate(459.425 280)">500</text></g><g clip-path="url(#clip12)"><text fill="#595959" font-family="Microsoft YaHei,Microsoft YaHei_MSFontService,sans-serif" font-weight="400" transform="translate(459.425 255)">600</text></g><g clip-path="url(#clip13)"><text fill="#595959" font-family="Microsoft YaHei,Microsoft YaHei_MSFontService,sans-serif" font-weight="400" transform="translate(459.425 230)">700</text></g><g clip-path="url(#clip14)"><text fill="#595959" font-family="Microsoft YaHei,Microsoft YaHei_MSFontService,sans-serif" font-weight="400" transform="translate(459.425 205)">800</text></g><g clip-path="url(#clip15)"><text fill="#595959" font-family="Microsoft YaHei,Microsoft YaHei_MSFontService,sans-serif" font-weight="400" transform="translate(459.425 180)">900</text></g><g clip-path="url(#clip16)"><text fill="#595959" font-family="Microsoft YaHei,Microsoft YaHei_MSFontService,sans-serif" font-weight="400" transform="translate(452.385 155)">1000</text></g><g clip-path="url(#clip17)"><text fill="#595959" font-family="Microsoft YaHei,Microsoft YaHei_MSFontService,sans-serif" font-weight="400" transform="translate(489.178 423)">0</text></g><g clip-path="url(#clip18)"><text fill="#595959" font-family="Microsoft YaHei,Microsoft YaHei_MSFontService,sans-serif" font-weight="400" transform="translate(532.982 423)">2000</text></g><g clip-path="url(#clip19)"><text fill="#595959" font-family="Microsoft YaHei,Microsoft YaHei_MSFontService,sans-serif" font-weight="400" transform="translate(587.346 423)">4000</text></g><g clip-path="url(#clip20)"><text fill="#595959" font-family="Microsoft YaHei,Microsoft YaHei_MSFontService,sans-serif" font-weight="400" transform="translate(641.709 423)">6000</text></g><g clip-path="url(#clip21)"><text fill="#595959" font-family="Microsoft YaHei,Microsoft YaHei_MSFontService,sans-serif" font-weight="400" transform="translate(696.073 423)">8000</text></g><g clip-path="url(#clip22)"><text fill="#595959" font-family="Microsoft YaHei,Microsoft YaHei_MSFontService,sans-serif" font-weight="400" transform="translate(746.916 423)">10000</text></g><g clip-path="url(#clip23)"><text fill="#595959" font-family="Microsoft YaHei,Microsoft YaHei_MSFontService,sans-serif" font-weight="400" transform="translate(801.28 423)">12000</text></g><g clip-path="url(#clip24)"><text fill="#595959" font-family="Microsoft YaHei,Microsoft YaHei_MSFontService,sans-serif" font-weight="400" transform="translate(855.643 423)">14000</text></g></g></svg>